<svg width="13" height="13" viewBox="0 0 13 13" fill="none" xmlns="http://www.w3.org/2000/svg">
<path d="M4.38184 0.882324C2.45234 0.882324 0.882812 2.4533 0.882812 4.3833V9.3833C0.882812 11.3128 2.45379 12.8823 4.38379 12.8823H9.38379C11.3133 12.8823 12.8828 11.3113 12.8828 9.38135V4.38135C12.8828 2.45185 11.3118 0.882324 9.38184 0.882324H4.38184ZM10.3828 2.88232C10.6588 2.88232 10.8828 3.10632 10.8828 3.38232C10.8828 3.65832 10.6588 3.88232 10.3828 3.88232C10.1068 3.88232 9.88281 3.65832 9.88281 3.38232C9.88281 3.10632 10.1068 2.88232 10.3828 2.88232ZM6.88281 3.88232C8.53731 3.88232 9.88281 5.22782 9.88281 6.88232C9.88281 8.53682 8.53731 9.88232 6.88281 9.88232C5.22831 9.88232 3.88281 8.53682 3.88281 6.88232C3.88281 5.22782 5.22831 3.88232 6.88281 3.88232ZM6.88281 4.88232C6.35238 4.88232 5.84367 5.09304 5.4686 5.46811C5.09353 5.84318 4.88281 6.35189 4.88281 6.88232C4.88281 7.41276 5.09353 7.92146 5.4686 8.29654C5.84367 8.67161 6.35238 8.88232 6.88281 8.88232C7.41325 8.88232 7.92195 8.67161 8.29703 8.29654C8.6721 7.92146 8.88281 7.41276 8.88281 6.88232C8.88281 6.35189 8.6721 5.84318 8.29703 5.46811C7.92195 5.09304 7.41325 4.88232 6.88281 4.88232V4.88232Z" fill="#F5CDD5"/>
</svg>
