<svg width="133" height="33" viewBox="0 0 133 33" fill="none" xmlns="http://www.w3.org/2000/svg">
<g clip-path="url(#clip0_1_63)">
<path fill-rule="evenodd" clip-rule="evenodd" d="M15.0136 3.14751C21.6695 3.14751 25.6112 3.5349 27.1624 3.72795C27.3415 5.43313 27.7083 9.79019 27.7083 16.8873C27.7083 23.9726 27.3428 28.3271 27.1633 30.0384C25.5361 30.23 21.3959 30.627 15.0136 30.627C8.5852 30.627 4.2928 30.2243 2.62176 30.0338C2.4415 28.3601 2.08108 24.1103 2.08108 16.8873C2.08108 9.65276 2.44259 5.40132 2.62257 3.73313C4.21736 3.54113 8.30373 3.14751 15.0136 3.14751ZM1.53746 1.63019C1.09103 1.70325 0.739521 2.07689 0.667415 2.55498C0.640159 2.73551 0 7.09158 0 16.8873C0 26.6829 0.640159 31.0389 0.667415 31.2196C0.740441 31.7037 1.09977 32.0799 1.55287 32.1467C1.75005 32.1759 6.47836 32.8584 15.0136 32.8584C23.5526 32.8584 28.0563 32.1748 28.2438 32.1457C28.6972 32.0753 29.0542 31.6954 29.1234 31.2098C29.1506 31.0191 29.7894 26.426 29.7894 16.8873C29.7894 7.34863 29.1506 2.75543 29.1234 2.5646C29.0552 2.0859 28.7068 1.70905 28.261 1.63173C28.0926 1.60244 24.0314 0.916016 15.0136 0.916016C6.00024 0.916016 1.71549 1.60096 1.53746 1.63019Z" fill="white"/>
<path fill-rule="evenodd" clip-rule="evenodd" d="M23.769 22.5772L23.537 6.88109C23.2923 6.0169 20.7203 6.76104 20.989 7.71025L21.5191 18.6421L16.4391 9.19101C16.1782 8.26948 14.2776 8.85781 14.5464 9.80696L15.0903 20.6484L9.85071 11.3353C9.78534 11.1045 9.58857 10.9743 9.3324 10.9235C8.53221 10.6874 7.05973 11.3167 7.29985 12.1652C7.60869 13.2562 10.2445 22.5684 10.2445 22.5684C10.4103 23.154 10.4196 23.6306 10.2725 23.9981C10.1252 24.3658 9.88199 24.6047 9.54308 24.715C9.25242 24.8097 8.95358 24.7932 8.64641 24.6659C8.33936 24.5386 8.12608 24.2634 8.06996 24.0647C7.78113 23.0446 5.33366 23.934 5.59828 24.869C5.86301 25.804 6.53428 26.7254 7.4777 27.1572C8.42101 27.5894 9.46891 27.6181 10.6208 27.2432C11.5422 26.9434 12.224 26.2987 12.6657 25.3093C13.1074 24.32 13.1682 23.2591 12.8478 22.1271C12.8478 22.1271 9.29847 14.6463 8.98837 13.5506L15.3777 25.3081C15.5862 26.0449 17.5183 25.3547 17.3259 24.6749L16.8506 14.3759L21.768 23.2275C21.9763 23.9632 23.9776 23.3146 23.769 22.5772Z" fill="white"/>
<path fill-rule="evenodd" clip-rule="evenodd" d="M39.9864 24.6428L39.5474 22.8929C40.6857 22.5989 40.9326 22.0253 40.9326 20.746V14.2029H42.9346V20.8787C42.9346 22.9957 41.9472 24.2604 39.9864 24.6428ZM47.0758 18.3788C46.3491 18.3788 46.0748 18.9377 46.0748 19.9375C46.0748 20.9374 46.3628 21.4962 47.0758 21.4962C47.8026 21.4962 48.0905 20.9374 48.0905 19.9375C48.0905 18.9377 47.8026 18.3788 47.0758 18.3788ZM47.0758 23.2458C45.293 23.2458 44.1 21.9225 44.1 19.9375C44.1 17.9524 45.293 16.6143 47.0758 16.6143C48.8585 16.6143 50.0652 17.9524 50.0652 19.9375C50.0652 21.9078 48.8585 23.2458 47.0758 23.2458ZM54.6589 23.04V19.5257C54.6589 18.6729 54.4121 18.2611 53.8499 18.2611C53.4522 18.2611 53.1642 18.4964 52.9175 18.9965V23.04H51.0524V13.3206H52.9175V17.5996C53.3289 17.0556 53.9459 16.6143 54.6178 16.6143C55.8382 16.6143 56.5239 17.5848 56.5239 19.4081V23.04H54.6589ZM61.5291 23.04V19.5111C61.5291 18.6436 61.3232 18.2611 60.72 18.2611C60.3497 18.2611 60.0202 18.511 59.7873 18.9965V23.04H57.9226V16.7761H59.6499V17.7613H59.6775C60.0202 17.0261 60.651 16.6143 61.433 16.6143C62.6262 16.6143 63.3938 17.6288 63.3938 19.364V23.04H61.5291ZM72.5405 23.04H71.1691L69.6879 17.6878H69.6603L68.1796 23.04H66.822L64.1482 14.2029H66.3695L67.1101 17.173C67.1923 17.4819 67.3568 18.2318 67.5897 19.4374H67.6173L69.0295 14.2029H70.3325L71.7447 19.4374H71.7723C71.9781 18.3201 72.1288 17.5701 72.2248 17.173L72.993 14.2029H75.2005L72.5405 23.04ZM77.8335 18.1435C77.3263 18.1435 76.983 18.5996 76.9284 19.4081H78.7247C78.7109 18.5846 78.4096 18.1435 77.8335 18.1435ZM76.9284 20.5109C77.0791 21.2902 77.5592 21.7314 78.3136 21.7314C78.7523 21.7314 79.1227 21.555 79.5476 21.2168L80.398 22.3047C79.7258 22.937 78.9306 23.2458 78.0388 23.2458C76.174 23.2458 74.9538 21.9372 74.9538 19.9669C74.9538 18.026 76.174 16.6143 77.8743 16.6143C79.4516 16.6143 80.5901 17.8641 80.5901 19.7462V20.5109H76.9284ZM83.4007 23.2458C82.3996 23.2458 81.5768 22.8489 81.0834 22.1579L81.9201 21.1581C82.345 21.5991 82.866 21.8197 83.3731 21.8197C83.7296 21.8197 83.9085 21.7018 83.9085 21.4962C83.9085 21.1874 83.6474 21.1285 83.1679 20.9521C81.8373 20.4669 81.2203 19.8492 81.2203 18.7611C81.2203 17.4819 82.1668 16.6143 83.5514 16.6143C84.2512 16.6143 84.9228 16.8055 85.6496 17.2024L85.1286 18.7024C84.5663 18.3495 84.0453 18.1875 83.6204 18.1875C83.2501 18.1875 83.0442 18.3495 83.0442 18.6142C83.0442 18.9818 83.3731 19.0405 83.9493 19.2759C85.1695 19.7609 85.7732 20.2023 85.7732 21.2902C85.7732 22.452 84.8682 23.2458 83.4007 23.2458ZM88.5431 23.2017C87.4459 23.2017 86.8842 22.5695 86.8842 21.3637V17.8641H86.1706V16.7761H86.8842V14.4087H88.7489V16.7761H89.4895V17.8641H88.7489V21.2461C88.7489 21.7018 88.9818 21.9519 89.4073 21.9519H89.5166V23.04C89.16 23.143 88.8311 23.2017 88.5431 23.2017ZM92.9862 18.3788C92.2594 18.3788 91.9851 18.9377 91.9851 19.9375C91.9851 20.9374 92.2732 21.4962 92.9862 21.4962C93.713 21.4962 94.0011 20.9374 94.0011 19.9375C94.0011 18.9377 93.713 18.3788 92.9862 18.3788ZM92.9862 23.2458C91.2031 23.2458 90.0105 21.9225 90.0105 19.9375C90.0105 17.9524 91.2031 16.6143 92.9862 16.6143C94.7687 16.6143 95.9756 17.9524 95.9756 19.9375C95.9756 21.9078 94.7687 23.2458 92.9862 23.2458ZM100.569 23.04V19.5111C100.569 18.6436 100.364 18.2611 99.7604 18.2611C99.3901 18.2611 99.0606 18.511 98.8277 18.9965V23.04H96.9629V16.7761H98.6903V17.7613H98.7179C99.0606 17.0261 99.6914 16.6143 100.473 16.6143C101.666 16.6143 102.434 17.6288 102.434 19.364V23.04H100.569ZM109.675 15.9525C109.071 15.5703 108.536 15.3645 107.961 15.3645C106.191 15.3645 104.546 17.173 104.546 19.6141C104.546 21.1581 105.355 22.1285 106.603 22.1285C107.028 22.1285 107.48 22.04 107.974 21.8638L108.358 19.5404H107.508L107.7 18.4376H109.62L108.948 22.4814C108.042 22.9957 107.22 23.2458 106.507 23.2458C104.601 23.2458 103.298 21.7608 103.298 19.6141C103.298 18.0406 103.846 16.6437 104.875 15.5703C105.794 14.6145 107 14.0706 108.18 14.0706C108.906 14.0706 109.579 14.291 110.196 14.7322L109.675 15.9525ZM114.117 17.9377C113.967 17.8641 113.788 17.8347 113.596 17.8347C112.856 17.8347 112.252 18.57 112.019 19.9669L111.512 23.04H110.402L111.43 16.7909H112.307L112.349 17.776H112.376C112.787 17.0115 113.363 16.6143 113.994 16.6143C114.241 16.6143 114.46 16.688 114.68 16.8496L114.117 17.9377ZM117.436 17.7172C116.256 17.7172 115.283 18.8493 115.283 20.4669C115.283 21.5109 115.818 22.1432 116.709 22.1432C117.889 22.1432 118.848 21.0108 118.848 19.364C118.848 18.3642 118.3 17.7172 117.436 17.7172ZM118.958 22.1579C118.327 22.8636 117.505 23.2458 116.627 23.2458C115.132 23.2458 114.172 22.1137 114.172 20.3198C114.172 19.4374 114.501 18.5406 115.077 17.8347C115.735 17.0261 116.572 16.6143 117.518 16.6143C118.958 16.6143 119.959 17.776 119.959 19.5257C119.959 20.5258 119.602 21.4519 118.958 22.1579ZM125.513 21.8491C125.499 21.9078 125.499 21.9519 125.499 21.996C125.499 22.1726 125.581 22.2607 125.718 22.2607H125.773L125.636 23.0989C125.471 23.143 125.307 23.1577 125.17 23.1577C124.649 23.1577 124.36 22.8783 124.32 22.3341H124.292C123.826 22.9518 123.291 23.2458 122.592 23.2458C121.467 23.2458 120.809 22.496 120.809 21.1432C120.809 20.8933 120.836 20.6433 120.878 20.3785L121.453 16.7909H122.578L121.989 20.3932C121.947 20.6579 121.92 20.8933 121.92 21.0991C121.92 21.8197 122.263 22.1873 122.921 22.1873C123.922 22.1873 124.484 21.3637 124.758 19.6875L125.225 16.7909H126.335L125.513 21.8491ZM130.463 17.6731C129.434 17.6731 128.447 18.8641 128.447 20.4815C128.447 21.5403 128.941 22.1873 129.722 22.1873C130.806 22.1873 131.765 20.9814 131.765 19.4374C131.765 18.2907 131.285 17.6731 130.463 17.6731ZM132.054 22.0842C131.368 22.8636 130.641 23.2458 129.791 23.2458C129.05 23.2458 128.529 22.937 128.187 22.3047H128.159L127.583 25.8337H126.445L127.953 16.7909H128.858L128.941 17.4378H128.968C129.393 16.9083 130.024 16.6143 130.71 16.6143C132.054 16.6143 132.945 17.7465 132.945 19.4521C132.945 20.5258 132.616 21.4519 132.054 22.0842Z" fill="white"/>
</g>
<defs>
<clipPath id="clip0_1_63">
<rect width="133" height="32" fill="white" transform="translate(0 0.858398)"/>
</clipPath>
</defs>
</svg>

<svg xmlns="http://www.w3.org/2000/svg" width="42" height="42" viewBox="0 0 42 42" fill="none">
  <defs>
    <rect id="blackRect" width="23.8719" height="5.30487" fill="black" />
  </defs>

  <use xlink:href="#blackRect" x="37.5143" y="24.2662" transform="rotate(135 37.5143 24.2662)" />
  <use xlink:href="#blackRect" x="20.6084" y="41.1724" transform="rotate(-135 20.6084 41.1724)" />
  <use xlink:href="#blackRect" x="17.9033" y="38.5729" transform="rotate(-90 17.9033 38.5729)" />
</svg>